<svg xmlns="http://www.w3.org/2000/svg" xmlns:xlink="http://www.w3.org/1999/xlink" id="Group_258" data-name="Group 258" width="70.9" height="91.44" viewBox="0 0 70.9 91.44"><defs><clipPath id="clip-path"><rect id="Rectangle_151" data-name="Rectangle 151" width="70.9" height="91.44" fill="none"></rect></clipPath></defs><line id="Line_150" data-name="Line 150" x1="8.001" y2="1.412" transform="translate(34.435 10.259)" fill="none" stroke="#000" stroke-linecap="round" stroke-linejoin="round" stroke-width="3"></line><g id="Group_259" data-name="Group 259"><g id="Group_258-2" data-name="Group 258" clip-path="url(#clip-path)"><path id="Path_738" data-name="Path 738" d="M34.842,15.066l-13.018-2.3a16.517,16.517,0,0,0-2.874-.251h-.023A16.243,16.243,0,0,0,4.769,20.512,26.229,26.229,0,0,0,1.5,33.757,28.12,28.12,0,0,0,5.213,47.724l3.724,6.51a24.545,24.545,0,0,1,3.175,10.058,56.619,56.619,0,0,0,7.33,23.357l2.479,4.311a3.552,3.552,0,0,0,6.632-1.771V83.38a29.149,29.149,0,0,1,1.829-10.163l.984-2.646a3.82,3.82,0,0,1,7.193.09l.985,2.867a29.15,29.15,0,0,1,1.584,9.478v7.183a3.552,3.552,0,0,0,6.632,1.771l2.48-4.311a56.63,56.63,0,0,0,7.33-23.357,24.533,24.533,0,0,1,3.175-10.058l3.725-6.51a28.127,28.127,0,0,0,3.713-13.967,31.364,31.364,0,0,0-.232-3.86" transform="translate(-0.407 -3.395)" fill="none" stroke="#000" stroke-linecap="round" stroke-linejoin="round" stroke-width="3"></path><path id="Path_739" data-name="Path 739" d="M26.211,23.934a9.645,9.645,0,0,0-9.446,3q-.246.29-.482.614a10.814,10.814,0,0,0-1.947,6.4" transform="translate(-3.888 -6.426)" fill="none" stroke="#000" stroke-linecap="round" stroke-linejoin="round" stroke-width="3"></path><path id="Path_740" data-name="Path 740" d="M82.046,19.965s-.574.243-1.577.559a40.3,40.3,0,0,1-4.186,1.09,50.659,50.659,0,0,1-5.019.785,5.887,5.887,0,0,0-5.218,5.212c-.2,1.833-.469,3.544-.787,5.041a39.942,39.942,0,0,1-1.09,4.172c-.33,1.017-.574,1.591-.574,1.591s-.244-.574-.574-1.591a39.945,39.945,0,0,1-1.09-4.172,51.428,51.428,0,0,1-.794-5.122,5.867,5.867,0,0,0-5.2-5.22c-1.877-.2-3.851-.445-5.026-.7a36.981,36.981,0,0,1-4.186-1.09c-1-.316-1.591-.559-1.591-.559s.588-.258,1.591-.574a36.981,36.981,0,0,1,4.186-1.09c1.494-.319,3.207-.592,5.044-.794A5.887,5.887,0,0,0,61.16,12.3c.2-1.829.469-3.537.788-5.034a37.025,37.025,0,0,1,1.075-4.172C63.352,2.074,63.6,1.5,63.6,1.5s.243.574.574,1.591a37.023,37.023,0,0,1,1.075,4.172c.324,1.523.6,3.269.8,5.138a5.866,5.866,0,0,0,5.212,5.21c1.876.2,3.849.439,5.023.69a40.3,40.3,0,0,1,4.186,1.09A15.774,15.774,0,0,1,82.046,19.965Z" transform="translate(-12.239 -0.407)" fill="none" stroke="#000" stroke-linecap="round" stroke-linejoin="round" stroke-width="3"></path></g></g></svg>