<svg xmlns="http://www.w3.org/2000/svg" viewBox="0 0 79.97 88.23"><g id="Layer_2" data-name="Layer 2"><g id="Layer_1-2" data-name="Layer 1"><path d="M57.47,81.48c-7.58,5-18.89,3.74-22.81,3.1.81-6.08-1.57-8.32-1.87-8.57a1.52,1.52,0,0,0-2.13.15,1.48,1.48,0,0,0,.15,2.1s1.75,1.81.66,7.23a1.49,1.49,0,0,0,1.14,1.75,47.79,47.79,0,0,0,9.81,1c5.23,0,11.6-.87,16.71-4.25a1.5,1.5,0,0,0-1.66-2.5Z"></path><path d="M25.71,72.61A18,18,0,0,1,17,73.92a31.51,31.51,0,0,1-5.47-1,1.22,1.22,0,0,1-.8-.7,1,1,0,0,1,0-.88c2-1.76,2.61-4.38,1.55-6.23a4.1,4.1,0,0,0-2.15-1.74.51.51,0,0,1-.34-.56,1.12,1.12,0,0,1,.89-.76H14.5a1.5,1.5,0,0,0,0-3H10.77l-.92-.26a.51.51,0,0,1-.39-.42.66.66,0,0,1,.07-.4,5,5,0,0,0,.89-2.77l.12-3.78a1.48,1.48,0,0,0-.43-1.09A1.5,1.5,0,0,0,9,49.92H3.94c.73-1.38,1.52-2.78,2.29-4.14.6-1.05,1.19-2.1,1.76-3.14a19.35,19.35,0,0,0,2.29-7.86,11.56,11.56,0,0,0-.08-2.35A21.23,21.23,0,0,1,10,29.66a17.18,17.18,0,0,1,.5-4.19A30.21,30.21,0,0,1,18.7,11C31.05-.87,49,4,49.73,4.22c7.18,2,12.75,6.12,16.11,11.83a28.07,28.07,0,0,1,3.72,17.49,33.09,33.09,0,0,1-1.38,5.56A1.5,1.5,0,0,0,71,40a35.91,35.91,0,0,0,1.49-6,31.15,31.15,0,0,0-4.1-19.46C64.67,8.14,58.49,3.58,50.55,1.34,48.48.75,30-4,16.63,8.83a33.28,33.28,0,0,0-9,15.9,20.47,20.47,0,0,0-.59,5,22.18,22.18,0,0,0,.24,3.12,8.16,8.16,0,0,1,0,1.79A16.12,16.12,0,0,1,5.35,41.2c-.56,1-1.14,2.07-1.73,3.1-1.2,2.13-2.44,4.32-3.47,6.47a1.5,1.5,0,0,0,.08,1.45,1.48,1.48,0,0,0,1.27.7h6l-.07,2.24a2,2,0,0,1-.31,1.08,3.54,3.54,0,0,0-.64,2.33,3.38,3.38,0,0,0,1.06,2.3,4.11,4.11,0,0,0-.59,1.25,3.48,3.48,0,0,0,2.18,4.1,1.23,1.23,0,0,1,.62.44,2.37,2.37,0,0,1-1,2.49,3.25,3.25,0,0,0-.65.84A3.94,3.94,0,0,0,8,73.44a4.24,4.24,0,0,0,2.76,2.42,34.68,34.68,0,0,0,6,1c.65.06,1.31.09,2,.09a21.24,21.24,0,0,0,8.15-1.62,1.5,1.5,0,1,0-1.16-2.77Z"></path><path d="M78.47,68.3A1.5,1.5,0,0,0,77,69.8a3.82,3.82,0,0,1-1.86,3.26,7.82,7.82,0,0,1-4.06,1.14H54.67a2.29,2.29,0,0,1-1.82-.79.87.87,0,0,1-.25-.7c0-.24.27-.9,1.65-1.87a1.5,1.5,0,0,0-.87-2.72H50.69A1.68,1.68,0,0,1,49,67a1.27,1.27,0,0,1,0-.49c0-.14.17-.72,2-2.07a4.5,4.5,0,0,0,.43-.34,1.51,1.51,0,0,0-1-2.58H47.5A1.46,1.46,0,0,1,46,60.57a1,1,0,0,1,0-.42,1.49,1.49,0,0,1,1-1.22l1.43-.64a1.5,1.5,0,0,0-.62-2.87h-13a1.93,1.93,0,0,1-2-1.38l0-.28a1.87,1.87,0,0,1,0-.53,1.93,1.93,0,0,1,1.93-1.32h0l20.57,0a2.62,2.62,0,0,0,2.09-.88,2.5,2.5,0,0,0,.42-2.59,1.54,1.54,0,0,0-.54-.67l-2.92-2-.19-.11c-.78-.38-2.44-1.54-2.61-2.65a.1.1,0,0,1,.13,0l22.73,9.1a3.93,3.93,0,0,1,1.4.94A3.78,3.78,0,0,1,77,55.67a1.5,1.5,0,0,0,3,0A6.76,6.76,0,0,0,78.07,51a7,7,0,0,0-2.46-1.66l-22.72-9.1a3.14,3.14,0,0,0-3.08.44,3,3,0,0,0-1.13,2.78c.39,2.79,3.45,4.53,4.14,4.89l.89.61-18.88,0h0A4.92,4.92,0,0,0,30,52.55a5,5,0,0,0-.13,1.34,4.3,4.3,0,0,0,.09.72,4.89,4.89,0,0,0,4.9,3.81h8.58a4.34,4.34,0,0,0-.4,1.46,4.19,4.19,0,0,0,.11,1.41,4.36,4.36,0,0,0,3.52,3.13A3.72,3.72,0,0,0,46,66.28a4.39,4.39,0,0,0,.09,1.35,4.6,4.6,0,0,0,4,3.44,3.81,3.81,0,0,0,.46,4.17,5.26,5.26,0,0,0,4.19,2H71.05a10.76,10.76,0,0,0,5.62-1.58A6.78,6.78,0,0,0,80,69.8,1.5,1.5,0,0,0,78.47,68.3Z"></path><path d="M42,44.29a1.51,1.51,0,0,0-.24-2.11,16,16,0,1,0-1.22,26,1.5,1.5,0,0,0-1.64-2.52,13,13,0,1,1,1-21.1A1.5,1.5,0,0,0,42,44.29Z"></path><path d="M32.19,48.59a1.5,1.5,0,0,0,0-3A9.14,9.14,0,1,0,37.66,62a1.5,1.5,0,1,0-1.8-2.4,6.14,6.14,0,0,1-9.81-4.91A6.15,6.15,0,0,1,32.19,48.59Z"></path></g></g></svg>