<svg xmlns="http://www.w3.org/2000/svg" viewBox="0 0 126.11 67.58"><g id="Layer_2" data-name="Layer 2"><g id="Layer_1-2" data-name="Layer 1"><path d="M9.48,31.6c1.46-.46,2.92-.89,4.38-1.31.62,3.49,1.24,7,1.76,10.53h0a9.28,9.28,0,0,0,8.29,8.06H24c.31,0,.63,0,.95,0a13.56,13.56,0,0,0,1.43-.07,9.32,9.32,0,0,0,8-7.89L37,25.28,38.87,25c.77,4.26,1.55,8.62,2.19,12.92h0a9.25,9.25,0,0,0,8.29,8h.13c.31,0,.62,0,.94,0A13.9,13.9,0,0,0,51.86,46a9.29,9.29,0,0,0,8-7.88l2.34-14.73c.68,0,1.35,0,2,0a178.51,178.51,0,0,1,24.9,1.87c.11.62.23,1.25.34,1.88.84,4.65,1.71,9.46,2.42,14.17a9.28,9.28,0,0,0,8.31,8.06h.11c.31,0,.63,0,.94,0a11.58,11.58,0,0,0,1.44-.08,9.28,9.28,0,0,0,8-7.88l1.78-11.18c1.83.52,3.66,1.06,5.47,1.64a1.54,1.54,0,0,0,.46.08,1.5,1.5,0,0,0,.46-2.93c-2-.63-3.94-1.22-5.92-1.78l2.31-14.54a7.1,7.1,0,0,0-4.64-7.86A26.79,26.79,0,0,0,102,3.32h-.13a33.5,33.5,0,0,0-9.82,1.59,7.11,7.11,0,0,0-5,7.85c.46,3.1,1,6.23,1.54,9.32a182.86,182.86,0,0,0-24.33-1.75H62.72l1.74-11a7.1,7.1,0,0,0-4.65-7.86A26.9,26.9,0,0,0,51.15,0,33.77,33.77,0,0,0,41.2,1.58,7.22,7.22,0,0,0,36.65,5.7a7,7,0,0,0-2.27-1.31A26.41,26.41,0,0,0,25.72,2.9h-.14a33.56,33.56,0,0,0-9.82,1.59,7.12,7.12,0,0,0-5,7.85c.72,4.78,1.59,9.62,2.44,14.31l.12.68Q11,28,8.58,28.73a1.5,1.5,0,0,0,.9,2.87Zm98.33,9.32a6.3,6.3,0,0,1-5.41,5.37,10.14,10.14,0,0,1-1.92,0,6.36,6.36,0,0,1-5.58-5.51c-.72-4.76-1.59-9.6-2.44-14.27l-.15-.86q8.75,1.42,17.33,3.72ZM90,12.32A4.14,4.14,0,0,1,93,7.77a30.77,30.77,0,0,1,8.92-1.45H102a23.82,23.82,0,0,1,7.69,1.33,4.11,4.11,0,0,1,2.67,4.56l-2.26,14.22a180.62,180.62,0,0,0-18.37-3.88C91.14,19.15,90.54,15.71,90,12.32ZM31.5,40.49a6.28,6.28,0,0,1-5.4,5.37,10.24,10.24,0,0,1-1.93,0,6.36,6.36,0,0,1-5.58-5.51h0c-.54-3.63-1.18-7.29-1.83-10.9q8.46-2.28,17.08-3.71Zm6.37-21c.16.86.31,1.71.46,2.56l-.88.12ZM56.94,37.6A6.31,6.31,0,0,1,51.53,43a11.16,11.16,0,0,1-1.93,0A6.37,6.37,0,0,1,44,37.48h0c-.65-4.28-1.42-8.62-2.18-12.85q8.63-1.05,17.35-1.25ZM42.09,4.45a31.07,31.07,0,0,1,9-1.45,23.56,23.56,0,0,1,7.69,1.33A4.1,4.1,0,0,1,61.5,8.88L59.67,20.37q-9.22.19-18.36,1.3c-.75-4.18-1.52-8.46-2.15-12.68A4.13,4.13,0,0,1,42.09,4.45ZM16.15,26.1c-.84-4.66-1.71-9.48-2.42-14.21a4.13,4.13,0,0,1,2.93-4.55,31,31,0,0,1,9-1.44,23.45,23.45,0,0,1,7.69,1.32,4.11,4.11,0,0,1,2.67,4.56L34.34,22.65a181.17,181.17,0,0,0-18.11,3.87Z"></path><path d="M125.16,47.61a1.5,1.5,0,0,0-2,.84l-3.12,7.87a13,13,0,0,1-12.18,8.26H17.29A13.1,13.1,0,0,1,4.65,54.9L3,48.61a1.51,1.51,0,0,0-1.84-1.06A1.51,1.51,0,0,0,.05,49.39l1.7,6.29a16.12,16.12,0,0,0,15.54,11.9h90.62a16,16,0,0,0,15-10.16L126,49.55A1.49,1.49,0,0,0,125.16,47.61Z"></path></g></g></svg>