<svg xmlns="http://www.w3.org/2000/svg" xmlns:xlink="http://www.w3.org/1999/xlink" id="Group_260" data-name="Group 260" width="86.299" height="97.288" viewBox="0 0 86.299 97.288"><defs><clipPath id="clip-path"><rect id="Rectangle_150" data-name="Rectangle 150" width="86.299" height="97.288" fill="none"></rect></clipPath></defs><g id="Group_256" data-name="Group 256" clip-path="url(#clip-path)"><path id="Path_725" data-name="Path 725" d="M72.955,30.552l5.095-.9a14.763,14.763,0,0,1,2.635-.229H80.7a14.894,14.894,0,0,1,12.971,7.3A21.493,21.493,0,0,1,95.8,41.96a26.5,26.5,0,0,1,.87,6.926,25.871,25.871,0,0,1-3.4,12.8l-3.409,5.96a22.439,22.439,0,0,0-2.914,9.223,51.884,51.884,0,0,1-6.72,21.4l-2.273,3.953a3.25,3.25,0,0,1-6.068-1.62V94.011a26.542,26.542,0,0,0-1.462-8.68L69.528,82.7a3.5,3.5,0,0,0-6.588-.072l-.906,2.418a26.684,26.684,0,0,0-1.68,9.32V100.6a3.234,3.234,0,0,1-.955,2.3,3.193,3.193,0,0,1-2.3.955,3.265,3.265,0,0,1-2.817-1.632l-2.273-3.953a51.9,51.9,0,0,1-6.721-21.4,22.014,22.014,0,0,0-1.273-5.705" transform="translate(-11.475 -7.671)" fill="none" stroke="#000" stroke-linecap="round" stroke-linejoin="round" stroke-width="3"></path><path id="Path_726" data-name="Path 726" d="M33.9,65.084a.023.023,0,0,0,0,.036" transform="translate(-8.835 -16.967)" fill="none" stroke="#000" stroke-linecap="round" stroke-linejoin="round" stroke-width="3"></path><path id="Path_727" data-name="Path 727" d="M40.5,53.236a5.609,5.609,0,0,1-.048.786,4.368,4.368,0,0,0-.822.423c.217.109.447.217.689.314a12.706,12.706,0,0,0,4.86.955,12.716,12.716,0,0,0,9.054-3.759" transform="translate(-10.33 -13.544)" fill="none" stroke="#000" stroke-linecap="round" stroke-linejoin="round" stroke-width="3"></path><path id="Path_728" data-name="Path 728" d="M53.612,39.877c3.3-5.544,0-11.249,0-11.249a12.809,12.809,0,0,0-23.269,10.25,7.252,7.252,0,0,1,.895-.06,6.668,6.668,0,0,1,4.458,1.7" transform="translate(-7.768 -5.833)" fill="none" stroke="#000" stroke-linecap="round" stroke-linejoin="round" stroke-width="3"></path><path id="Path_729" data-name="Path 729" d="M53.79,39.249c.447,4.77,4.883,8.946,9.778,8.419a8.544,8.544,0,0,0,7.1-5.925,8.832,8.832,0,0,0-4.533-10.275" transform="translate(-14.022 -8.203)" fill="none" stroke="#000" stroke-linecap="round" stroke-linejoin="round" stroke-width="3"></path><path id="Path_730" data-name="Path 730" d="M47.8,55.767a8.507,8.507,0,0,1,3.24,5.427,6.837,6.837,0,0,1,.133,1.414,8.643,8.643,0,1,1-17.286,0,7.965,7.965,0,0,1,.3-2.224,8.593,8.593,0,0,1,3.941-5.21,4.416,4.416,0,0,1,.822-.424" transform="translate(-8.834 -14.273)" fill="none" stroke="#000" stroke-linecap="round" stroke-linejoin="round" stroke-width="3"></path><path id="Path_731" data-name="Path 731" d="M28.485,44.7a6.7,6.7,0,0,0,.895,13.345,6.48,6.48,0,0,0,1.886-.278" transform="translate(-5.91 -11.652)" fill="none" stroke="#000" stroke-linecap="round" stroke-linejoin="round" stroke-width="3"></path><path id="Path_732" data-name="Path 732" d="M40.315,55.488a4.96,4.96,0,0,0,.133-.737,4.39,4.39,0,0,0-.822.423" transform="translate(-10.33 -14.273)" fill="none" stroke="#000" stroke-linecap="round" stroke-linejoin="round" stroke-width="3"></path><path id="Path_733" data-name="Path 733" d="M55.484,63.3a6.48,6.48,0,0,1,2.429-.459A6.9,6.9,0,0,1,59.5,76.416a7.908,7.908,0,0,1-6.547-1.31,6.954,6.954,0,0,1-2.015-2.719" transform="translate(-13.278 -16.383)" fill="none" stroke="#000" stroke-linecap="round" stroke-linejoin="round" stroke-width="3"></path><path id="Path_734" data-name="Path 734" d="M80.442,11.159a6.1,6.1,0,1,1-6.1-6.1A6.1,6.1,0,0,1,80.442,11.159Z" transform="translate(-17.792 -1.32)" fill="none" stroke="#000" stroke-linecap="round" stroke-linejoin="round" stroke-width="3"></path><path id="Path_735" data-name="Path 735" d="M13.692,42.547a6.1,6.1,0,1,1-6.1-6.1A6.1,6.1,0,0,1,13.692,42.547Z" transform="translate(-0.391 -9.502)" fill="none" stroke="#000" stroke-linecap="round" stroke-linejoin="round" stroke-width="3"></path><path id="Path_736" data-name="Path 736" d="M46.493,5.865A4.365,4.365,0,1,1,42.128,1.5,4.365,4.365,0,0,1,46.493,5.865Z" transform="translate(-9.844 -0.391)" fill="none" stroke="#000" stroke-linecap="round" stroke-linejoin="round" stroke-width="3"></path><path id="Path_737" data-name="Path 737" d="M26.721,81.435a4.365,4.365,0,1,1-4.366-4.365A4.365,4.365,0,0,1,26.721,81.435Z" transform="translate(-4.69 -20.091)" fill="none" stroke="#000" stroke-linecap="round" stroke-linejoin="round" stroke-width="3"></path></g></svg>