<svg xmlns="http://www.w3.org/2000/svg" viewBox="0 0 129.89 68.26"><g id="Layer_2" data-name="Layer 2"><g id="Layer_1-2" data-name="Layer 1"><path d="M129.74,38.48,127,24.22A29.83,29.83,0,0,0,97.77,0H32.12A29.82,29.82,0,0,0,2.85,24.23L.16,38.48A8.67,8.67,0,0,0,7.31,48.69C7.22,50,7.22,50.85,7.22,51c-.11,4.89.49,8.89,1.78,11.88a8.49,8.49,0,0,0,8.33,5.33c1.78-.12,4.52-.27,7.44-.3H30.1c2.34.06,5.42.22,7.59.35h.48A8.79,8.79,0,0,0,46.43,62c.09-.26.16-.54.24-.82.19.58.38,1.13.6,1.65A8.51,8.51,0,0,0,55.6,68.2c1.78-.12,4.52-.27,7.44-.3h5.33c2.35.06,5.42.22,7.59.35h.49a8.74,8.74,0,0,0,8.07-5.73c0,.11.08.23.13.34A8.49,8.49,0,0,0,93,68.2c1.78-.12,4.51-.27,7.43-.3h5.33c2.35.06,5.43.22,7.6.35h.48A8.78,8.78,0,0,0,122.07,62a32.28,32.28,0,0,0,1.25-11c0-.15,0-1.05-.11-2.46a8.67,8.67,0,0,0,6.53-10.08Zm-19.75-1H104.6V34.23a1.5,1.5,0,1,0-3,0v3.26H96.2A1.5,1.5,0,0,0,94.7,39v6.23q-4.19.2-8.4.32c.75-5.43,2.8-13.67,8.37-18.87a12,12,0,0,1,8.25-3.13h.35a12,12,0,0,1,8.24,3.13c4.77,4.44,6.95,11.11,8,16.35l-8,1.14V39A1.5,1.5,0,0,0,110,37.49ZM97.7,51.28V40.49h10.79V51.28Zm-38.15,0V40.49H70.34V51.28ZM71.84,37.49H66.45V34.23a1.5,1.5,0,0,0-3,0v3.26h-5.4a1.5,1.5,0,0,0-1.5,1.5v6.67L49,45.42c.76-5.44,2.82-13.59,8.35-18.75a12,12,0,0,1,8.24-3.13h.36a12,12,0,0,1,8.24,3.13c5.61,5.23,7.64,13.53,8.39,19-3.07.07-6.14.12-9.19.14V39A1.5,1.5,0,0,0,71.84,37.49Zm-38.06,0h-5.4V34.23a1.5,1.5,0,0,0-3,0v3.26H20a1.5,1.5,0,0,0-1.5,1.5v4.38l-7.3-1c1.06-5.14,3.26-11.47,7.84-15.74a12,12,0,0,1,8.24-3.13h.35a12,12,0,0,1,8.24,3.13c5.46,5.09,7.54,13.1,8.33,18.55q-4.47-.21-8.91-.49V39A1.5,1.5,0,0,0,33.78,37.49ZM21.49,51.28V40.49H32.28V51.28Zm22.09,9.8a5.8,5.8,0,0,1-5.72,4.17c-2.19-.12-5.3-.29-7.72-.35h-5.4c-3,0-5.79.18-7.61.31a5.53,5.53,0,0,1-5.38-3.53c-1.12-2.59-1.64-6.17-1.54-10.66a44,44,0,0,1,.47-5.65l7.81,1v6.38a1.5,1.5,0,0,0,1.5,1.5h5.39v3.15a1.5,1.5,0,0,0,3,0V54.28h5.4a1.5,1.5,0,0,0,1.5-1.5v-5q4.61.28,9.26.5c.13,1.6.14,2.65.14,2.82A30,30,0,0,1,43.58,61.08Zm38.28,0a5.82,5.82,0,0,1-5.73,4.17c-2.19-.12-5.3-.29-7.72-.35H63c-3,0-5.8.18-7.62.31A5.53,5.53,0,0,1,50,61.68c-1.12-2.59-1.64-6.17-1.54-10.66,0-.15,0-1.12.12-2.61q4,.15,7.94.25v4.12a1.5,1.5,0,0,0,1.5,1.5h5.4v3.15a1.5,1.5,0,0,0,3,0V54.28h5.39a1.5,1.5,0,0,0,1.5-1.5v-4q4.74,0,9.5-.15c0,.36,0,.67.06,1,0,.79,0,1.28,0,1.39,0,1.25,0,2.45.06,3.59A24.21,24.21,0,0,1,81.86,61.08Zm37.37,0a5.81,5.81,0,0,1-5.72,4.17c-2.19-.12-5.3-.29-7.73-.35h-5.39c-3,0-5.79.18-7.62.31a5.52,5.52,0,0,1-5.37-3.53,21.37,21.37,0,0,1-1.47-7.14c0-1.12.06-2.29,0-3.52,0-.11,0-.62,0-1.43,0-.3,0-.65.06-1q4.38-.14,8.73-.34v4.56a1.5,1.5,0,0,0,1.5,1.5h5.4v3.15a1.5,1.5,0,1,0,3,0V54.28H110a1.5,1.5,0,0,0,1.5-1.5V47.19L119.94,46c.06.47.11.91.16,1.33,0,0,0,0,0,.07l0,.18c.2,2,.2,3.31.2,3.5A29.72,29.72,0,0,1,119.23,61.08Zm6.44-17.45a5.68,5.68,0,0,1-2.77,1.91c-.78-5.88-3-15.16-9.34-21.06a15,15,0,0,0-10.29-3.94h-.35a15,15,0,0,0-10.29,3.94c-4.49,4.18-6.91,10.05-8.22,15.21-1.32-5.16-3.74-11-8.23-15.21A15,15,0,0,0,65.9,20.54h-.36a15,15,0,0,0-10.28,3.94c-5.07,4.72-7.5,11.58-8.68,17.15C45.41,36.06,43,29.19,37.91,24.48a15,15,0,0,0-10.29-3.94h-.35A15,15,0,0,0,17,24.48c-6.4,6-8.6,15.36-9.36,21.22A5.7,5.7,0,0,1,3.1,39L5.8,24.78A26.82,26.82,0,0,1,32.12,3H97.77a26.82,26.82,0,0,1,26.32,21.78L126.79,39A5.7,5.7,0,0,1,125.67,43.63Z"></path></g></g></svg>