<svg xmlns="http://www.w3.org/2000/svg" viewBox="0 0 145.32 58.65"><defs><style>.cls-1{fill:#333;}</style></defs><g id="Layer_2" data-name="Layer 2"><g id="Layer_1-2" data-name="Layer 1"><path class="cls-1" d="M144.1,11.59c-6.74-1.24-13.54-2.54-20.21-3.85a117.69,117.69,0,0,1-15.51-4.62c-1.49-.52-3-1-4.45-1.54a31.57,31.57,0,0,0-21.2.53l-.1,0c-1.21.48-2.42,1-3.64,1.39a18.72,18.72,0,0,1-12.66,0c-1.21-.44-2.42-.91-3.63-1.39l-.11,0A31.54,31.54,0,0,0,41.4,1.58L36.94,3.11A115.81,115.81,0,0,1,21.43,7.74C14.77,9.05,8,10.35,1.23,11.59A1.49,1.49,0,0,0,0,13.06a1.51,1.51,0,0,0,1.21,1.48c3.42.66,6.86,1.26,10.31,1.83a1.65,1.65,0,0,0-.57.11,1.5,1.5,0,0,0-.83,1.95l5.25,13.08A40.94,40.94,0,0,0,47,56.65a166.92,166.92,0,0,0,25.68,2,167.31,167.31,0,0,0,25.68-2A41.07,41.07,0,0,0,130,31.51l5.26-13.08a1.5,1.5,0,0,0-.84-1.95,1.55,1.55,0,0,0-.56-.11c3.44-.57,6.88-1.17,10.3-1.83a1.5,1.5,0,0,0,0-2.95Zm-11.68,5.72-5.25,13.08a38.08,38.08,0,0,1-29.29,23.3,164.31,164.31,0,0,1-50.43,0,37.95,37.95,0,0,1-29.29-23.3L12.9,17.31a1.48,1.48,0,0,0-1-.87q13.47,2.2,27.16,3.43V33.93a43.81,43.81,0,0,1-13-11.78l-2.18-3a1.48,1.48,0,0,0-1.31-.77,1.51,1.51,0,0,0-1.5,1.51,1.45,1.45,0,0,0,.29.88l2.27,3.12A46.86,46.86,0,0,0,39.92,37.81a45.93,45.93,0,0,0,17.25,4.91c1.16.11,2.45.17,3.83.17H84.44a43.89,43.89,0,0,0,7.1-.57h.08a45.64,45.64,0,0,0,16.27-5.83,45.28,45.28,0,0,0,14.16-12.91l2-2.8A1.5,1.5,0,0,0,121.61,19l-2,2.8a42.22,42.22,0,0,1-11,10.65V19.67c8.3-.79,16.56-1.89,24.76-3.23A1.49,1.49,0,0,0,132.42,17.31Zm-26.78,17a42.42,42.42,0,0,1-12.83,4.75V20.84q6.42-.35,12.83-.92ZM89.81,39.54a41.51,41.51,0,0,1-5.37.35H75.76V21.36c4.68,0,9.37-.15,14-.36Zm-17,.35H61c-.77,0-1.49,0-2.19-.06V21.12c4.39.16,8.79.27,13.18.28h.77Zm-17-.33a42.88,42.88,0,0,1-13.71-4V20.13c4.56.37,9.13.67,13.71.87ZM72,18.4A372.88,372.88,0,0,1,9.75,13.05C13.86,12.27,18,11.48,22,10.69A118.53,118.53,0,0,0,37.93,6l4.42-1.53a28.5,28.5,0,0,1,19.15.49l.11,0c1.23.48,2.46,1,3.69,1.41A21.88,21.88,0,0,0,80,6.36c1.23-.45,2.47-.93,3.7-1.41l.11,0A28.47,28.47,0,0,1,103,4.42L107.39,6a119.4,119.4,0,0,0,15.92,4.74l12.26,2.36A372.52,372.52,0,0,1,72,18.4Z"></path></g></g></svg>